{"title":"Pöial-Liisi 2011 [DVDrip] eesti keeles by Jann1","uid":7874431,"size":830549566,"categoryP":"video","categoryS":"movies","magnet":"?xt=urn:btih:ec83fd2f5463f4ee5a814ac575ea621240df9a85&amp;dn=P%26ouml%3Bial-Liisi+2011+%5BDVDrip%5D+eesti+keeles+by+Jann1&amp;tr=udp%3A%2F%2Ftracker.openbittorrent.com%3A80&amp;tr=udp%3A%2F%2Fopen.demonii.com%3A1337&amp;tr=udp%3A%2F%2Ftracker.coppersurfer.tk%3A6969&amp;tr=udp%3A%2F%2Fexodus.desync.com%3A6969","seeders":5,"leechers":2,"uploader":"Jann1","files":1,"time":1354299316,"description":"Video\nID                                       : 0\nFormat                                   : MPEG-4 Visual\nFormat profile                           : Advanced Simple@L4\nFormat settings, BVOP                    : No\nFormat settings, QPel                    : No\nFormat settings, GMC                     : No warppoints\nFormat settings, Matrix                  : Default (H.263)\nCodec ID                                 : XVID\nCodec ID/Hint                            : XviD\nDuration                                 : 1h 22mn\nBit rate                                 : 1 199 Kbps\nWidth                                    : 640 pixels\nHeight                                   : 360 pixels\nDisplay aspect ratio                     : 16:9\nFrame rate                               : 25.000 fps\nColor space                              : YUV\nChroma subsampling                       : 4:2:0\nBit depth                                : 8 bits\nScan type                                : Progressive\nCompression mode                         : Lossy\nBits/(Pixel*Frame)                       : 0.208\nStream size                              : 709 MiB (89%)\nWriting library                          : Magic0432\n\nAudio\nID                                       : 1\nFormat                                   : MPEG Audio\nFormat version                           : Version 1\nFormat profile                           : Layer 3\nMode                                     : Joint stereo\nCodec ID                                 : 55\nCodec ID/Hint                            : MP3\nDuration                                 : 1h 22mn\nBit rate mode                            : Constant\nBit rate                                 : 128 Kbps\nChannel(s)                               : 2 channels\nSampling rate                            : 48.0 KHz\nCompression mode                         : Lossy\nStream size                              : 75.6 MiB (10%)\nAlignment                                : Aligned on interleaves\nInterleave, duration                     : 24 ms (0.60 video frame)\nWriting library                          : LAME3.97\nLanguage                                 : Estonian only","torrent":{"xt":"urn:btih:ec83fd2f5463f4ee5a814ac575ea621240df9a85","amp;dn":"P%26ouml%3Bial-Liisi+2011+%5BDVDrip%5D+eesti+keeles+by+Jann1","amp;tr":["udp%3A%2F%2Ftracker.openbittorrent.com%3A80","udp%3A%2F%2Fopen.demonii.com%3A1337","udp%3A%2F%2Ftracker.coppersurfer.tk%3A6969","udp%3A%2F%2Fexodus.desync.com%3A6969"],"infoHash":"ec83fd2f5463f4ee5a814ac575ea621240df9a85","infoHashBuffer":{"type":"Buffer","data":[236,131,253,47,84,99,244,238,90,129,74,197,117,234,98,18,64,223,154,133]},"announce":[],"urlList":[]}}